<svg xmlns="http://www.w3.org/2000/svg" width="485.669" height="199.583" viewBox="0 0 128.5 52.806"><path d="M27.716 51.14c-.105 0-.212-.009-.319-.024C17.318 49.591 9.718 40.743 9.718 30.535c0-10.191 7.585-19.037 17.644-20.576A2.11 2.11 0 0128 14.132C19.983 15.36 13.94 22.41 13.94 30.535c0 8.138 6.056 15.19 14.089 16.406a2.111 2.111 0 01-.313 4.198M9.48 48.235c.947-.68 1.163-2 .483-2.946a25.133 25.133 0 01-4.742-14.754c0-13.958 11.355-25.313 25.313-25.313 4.742 0 9.364 1.318 13.367 3.813a2.11 2.11 0 102.233-3.583A29.458 29.458 0 0030.535 1C14.249 1 1 14.25 1 30.535c0 6.224 1.914 12.179 5.536 17.218a2.106 2.106 0 001.716.878c.426 0 .857-.128 1.23-.396m21.706-18.019a2.11 2.11 0 00-2.111-2.11h-2.674a2.11 2.11 0 100 4.221h2.674a2.11 2.11 0 002.11-2.11M29.97 40.933a2.11 2.11 0 00-1.503-2.578 8.097 8.097 0 01-6.032-7.821 8.099 8.099 0 016.032-7.822 2.11 2.11 0 00-1.076-4.082 12.322 12.322 0 00-9.178 11.904 12.322 12.322 0 009.178 11.903 2.112 2.112 0 002.58-1.503m4.656 1.503a12.322 12.322 0 009.178-11.903 12.322 12.322 0 00-9.178-11.904 2.111 2.111 0 00-1.076 4.082 8.099 8.099 0 016.032 7.822 8.097 8.097 0 01-6.032 7.82 2.11 2.11 0 101.076 4.083" fill="#d6084f"/><path d="M52.872 41.468c-.257-.26-.386-.609-.386-1.046v-3.078c0-.431.13-.777.386-1.037.258-.26.599-.39 1.025-.39.432 0 .776.129 1.033.386.257.257.386.604.386 1.041v.142c0 .055-.028.082-.083.082l-.431.025c-.056 0-.084-.028-.084-.083v-.207c0-.26-.074-.47-.224-.63-.149-.161-.348-.241-.597-.241a.781.781 0 00-.593.24c-.152.16-.228.37-.228.63v3.17c0 .26.076.47.228.631.152.16.35.24.593.24.249 0 .448-.08.597-.24.15-.16.224-.37.224-.63v-.208c0-.055.028-.083.084-.083l.431.025c.055 0 .083.027.083.083v.132c0 .437-.13.786-.39 1.046s-.603.39-1.029.39c-.426 0-.767-.13-1.025-.39M57.996 37.643c.039.022.053.058.042.108l-.1.431c-.005.05-.038.066-.099.05a.555.555 0 00-.248-.05.462.462 0 00-.1.009c-.198.01-.361.115-.488.31-.127.197-.19.436-.19.718v2.49c0 .055-.028.082-.084.082h-.422c-.055 0-.083-.027-.083-.083v-4.032c0-.055.028-.083.083-.083h.422c.056 0 .084.028.084.083v.498c0 .017.004.025.012.025s.018-.006.029-.017c.16-.42.422-.63.786-.63a.67.67 0 01.356.091M61.16 39.916h-1.892c-.023 0-.034.011-.034.033v.606c0 .232.065.422.195.568.13.147.3.22.51.22a.667.667 0 00.453-.161.762.762 0 00.244-.42c.017-.05.048-.074.092-.074l.415.016a.08.08 0 01.058.025c.017.017.022.039.017.067-.045.326-.18.585-.403.776-.224.19-.516.286-.875.286-.393 0-.707-.116-.942-.349-.235-.232-.353-.54-.353-.92v-1.793c0-.376.118-.681.353-.916s.549-.353.942-.353c.398 0 .714.118.95.353.235.235.352.54.352.916v1.038c0 .055-.027.082-.083.082m-1.73-1.655c-.13.147-.195.339-.195.577v.556c0 .022.011.033.034.033h1.36c.022 0 .033-.011.033-.033v-.556c0-.238-.066-.43-.199-.577a.674.674 0 00-.522-.22c-.21 0-.38.074-.51.22m.144-1.244c-.01-.02-.008-.043.009-.07l.514-.905c.028-.039.061-.059.1-.059h.34c.033 0 .054.01.062.03.008.019.005.043-.012.07l-.581.904c-.028.04-.06.059-.1.059h-.265c-.033 0-.056-.01-.067-.03M64.342 37.904c.233.252.35.588.35 1.008v2.796c0 .056-.029.083-.084.083h-.423c-.055 0-.083-.027-.083-.083v-.249c0-.01-.004-.018-.012-.02-.01-.003-.019.001-.03.012-.205.271-.511.407-.92.407-.305 0-.569-.088-.793-.261-.224-.175-.336-.483-.336-.925 0-.47.135-.815.407-1.034.27-.218.627-.327 1.07-.327h.58c.023 0 .034-.011.034-.034v-.323c0-.277-.064-.498-.191-.664a.614.614 0 00-.514-.249.606.606 0 00-.428.166.675.675 0 00-.211.423c0 .056-.028.083-.083.083l-.465-.008c-.028 0-.049-.008-.062-.025a.062.062 0 01-.013-.058c.028-.326.16-.59.399-.792.237-.202.53-.303.879-.303.387 0 .697.126.93.377m-.49 3.22c.166-.147.249-.35.249-.61v-.697c0-.022-.011-.034-.033-.034h-.59c-.265 0-.475.07-.63.212-.155.141-.232.35-.232.626 0 .244.06.425.178.544a.633.633 0 00.469.178.862.862 0 00.589-.22M67.028 38.033h-.63c-.022 0-.033.011-.033.033v2.539c0 .254.044.43.132.527.089.097.224.142.407.136h.083c.055 0 .083.028.083.083v.357c0 .056-.028.083-.083.083h-.208c-.326 0-.573-.07-.742-.211-.169-.141-.254-.408-.254-.8v-2.714c0-.022-.01-.033-.032-.033h-.324c-.055 0-.083-.028-.083-.083v-.274c0-.055.028-.083.083-.083h.324c.021 0 .032-.01.032-.033v-.93c0-.055.028-.082.084-.082h.415c.055 0 .083.027.083.082v.93c0 .022.01.033.033.033h.63c.055 0 .083.028.083.083v.274c0 .055-.028.083-.083.083M70.298 39.916h-1.891c-.022 0-.033.011-.033.033v.606c0 .232.065.422.195.568.13.147.3.22.51.22a.667.667 0 00.452-.161.762.762 0 00.245-.42c.017-.05.047-.074.091-.074l.415.016a.08.08 0 01.058.025c.017.017.022.039.017.067-.045.326-.179.585-.403.776-.224.19-.516.286-.875.286-.393 0-.707-.116-.942-.349-.235-.232-.352-.54-.352-.92v-1.793c0-.376.117-.681.352-.916s.55-.353.942-.353c.398 0 .715.118.95.353s.353.54.353.916v1.038c0 .055-.028.082-.084.082m-1.73-1.655c-.13.147-.194.339-.194.577v.556c0 .022.01.033.033.033h1.36c.022 0 .034-.011.034-.033v-.556c0-.238-.066-.43-.2-.577a.674.674 0 00-.522-.22c-.21 0-.38.074-.51.22M73.262 37.593h.423c.056 0 .083.028.083.083v4.032c0 .056-.027.083-.083.083h-.423c-.055 0-.083-.027-.083-.083v-.281c0-.017-.004-.026-.012-.026-.009 0-.019.006-.03.017-.17.288-.447.432-.829.432-.332 0-.596-.101-.792-.303-.197-.202-.295-.508-.295-.917v-2.954c0-.055.028-.083.083-.083h.423c.055 0 .083.028.083.083v2.821c0 .277.057.485.17.626.114.142.278.212.494.212.221 0 .394-.08.518-.24.125-.16.187-.38.187-.656v-2.763c0-.055.028-.083.083-.083M76.511 37.643c.04.022.053.058.042.108l-.1.431c-.005.05-.038.066-.099.05a.555.555 0 00-.248-.05.46.46 0 00-.1.009c-.198.01-.361.115-.488.31-.127.197-.19.436-.19.718v2.49c0 .055-.028.082-.083.082h-.422c-.056 0-.084-.027-.084-.083v-4.032c0-.055.028-.083.084-.083h.422c.055 0 .082.028.082.083v.498c0 .017.005.025.013.025s.017-.006.028-.017c.16-.42.423-.63.787-.63a.67.67 0 01.356.091M80.846 35.983h.423c.055 0 .083.028.083.083v5.642c0 .056-.028.083-.083.083h-.423c-.055 0-.083-.027-.083-.083v-.182c0-.011-.004-.02-.013-.025-.007-.005-.017-.003-.029.008-.21.233-.475.349-.796.349-.354 0-.636-.118-.846-.353-.21-.235-.315-.54-.315-.917v-1.792c0-.387.105-.695.315-.925.21-.23.492-.344.846-.344.327 0 .592.119.796.357.012.01.022.014.03.008s.012-.014.012-.025v-1.8c0-.056.028-.084.083-.084m-.278 5.14a.827.827 0 00.195-.568v-1.717c0-.238-.065-.43-.195-.577a.642.642 0 00-.502-.22.674.674 0 00-.518.22c-.136.147-.203.339-.203.577v1.717c0 .232.067.422.203.568.135.147.308.22.518.22a.642.642 0 00.502-.22M84.777 39.916h-1.892c-.022 0-.033.011-.033.033v.606c0 .232.065.422.195.568.13.147.3.22.51.22a.666.666 0 00.452-.161.76.76 0 00.245-.42c.017-.05.047-.074.091-.074l.415.016a.08.08 0 01.058.025c.017.017.022.039.017.067-.044.326-.178.585-.402.776-.225.19-.516.286-.876.286-.393 0-.707-.116-.941-.349-.236-.232-.353-.54-.353-.92v-1.793c0-.376.117-.681.353-.916.234-.235.548-.353.94-.353.4 0 .716.118.951.353s.353.54.353.916v1.038c0 .055-.028.082-.083.082m-1.73-1.655c-.13.147-.195.339-.195.577v.556c0 .022.011.033.033.033h1.36c.023 0 .034-.011.034-.033v-.556c0-.238-.066-.43-.199-.577a.674.674 0 00-.523-.22c-.21 0-.38.074-.51.22M88.154 41.717l-1.03-4.033-.008-.033c0-.038.025-.058.075-.058h.481c.05 0 .08.025.091.075l.714 3.144c.005.017.011.025.017.025.005 0 .01-.008.016-.025l.705-3.144c.011-.05.042-.075.092-.075l.481.008c.027 0 .048.009.062.026.014.016.016.038.005.066l-1.021 4.024c-.006.05-.036.075-.092.075h-.497c-.05 0-.08-.026-.091-.075M90.852 41.51c-.236-.233-.353-.54-.353-.922v-1.783c0-.377.119-.683.356-.921.238-.238.554-.357.947-.357.398 0 .716.119.954.357s.356.544.356.92v1.784c0 .382-.118.689-.356.921-.238.233-.556.349-.954.349-.399 0-.715-.116-.95-.349m1.468-.39c.136-.143.203-.334.203-.572v-1.71c0-.237-.067-.43-.203-.576a.674.674 0 00-.518-.22.664.664 0 00-.515.22c-.132.147-.2.339-.2.577v1.709c0 .238.068.429.2.572a.669.669 0 00.515.216.68.68 0 00.518-.216M94.259 41.538c-.23-.196-.345-.457-.345-.784v-.058c0-.055.028-.083.084-.083h.398c.055 0 .083.028.083.083v.05c0 .177.065.327.195.448.13.122.3.182.51.182a.65.65 0 00.48-.182.629.629 0 00.184-.465.558.558 0 00-.116-.36.885.885 0 00-.27-.229 6.34 6.34 0 00-.46-.216 3.808 3.808 0 01-.536-.261 1.147 1.147 0 01-.365-.365c-.102-.158-.153-.358-.153-.601 0-.354.109-.634.327-.838.219-.205.513-.307.884-.307.376 0 .675.105.896.315.221.21.332.49.332.838v.025c0 .055-.028.083-.083.083h-.382c-.055 0-.083-.028-.083-.083v-.05a.623.623 0 00-.186-.465.666.666 0 00-.486-.182.628.628 0 00-.477.187.639.639 0 00-.178.46c0 .133.036.245.108.336.072.091.16.166.265.224.105.058.252.129.44.212.227.1.414.193.56.282.147.088.275.213.386.373.11.16.165.36.165.597 0 .344-.113.617-.34.822-.226.205-.533.307-.92.307-.382 0-.688-.098-.917-.295" fill="#367591"/><path d="M99.031 41.474c-.247-.252-.37-.583-.37-.99v-.2c0-.05.025-.076.076-.076h.566c.051 0 .077.025.077.076v.16c0 .235.059.423.176.563a.56.56 0 00.45.21.581.581 0 00.456-.203.771.771 0 00.18-.53.78.78 0 00-.095-.391 1.142 1.142 0 00-.253-.302c-.105-.09-.274-.221-.509-.394a7.651 7.651 0 01-.612-.497 1.848 1.848 0 01-.375-.498 1.44 1.44 0 01-.153-.681c0-.413.123-.74.367-.983.246-.242.564-.364.957-.364.408 0 .735.13.983.39s.371.602.371 1.026v.191c0 .051-.026.077-.076.077h-.567c-.05 0-.076-.026-.076-.077v-.206c0-.23-.058-.415-.176-.555a.57.57 0 00-.46-.21.559.559 0 00-.435.187c-.112.125-.169.3-.169.524a.8.8 0 00.169.516c.112.14.329.328.65.563.306.23.537.416.693.558.155.143.275.3.359.47.084.172.127.375.127.609 0 .428-.126.772-.376 1.029-.25.258-.576.387-.98.387-.402 0-.727-.127-.975-.38M102.364 41.47c-.255-.255-.382-.594-.382-1.017v-2.67c0-.424.127-.765.382-1.022.255-.258.591-.386 1.01-.386.423 0 .763.128 1.021.386.258.257.387.598.387 1.021v2.67c0 .424-.13.763-.387 1.018-.258.255-.598.382-1.02.382-.42 0-.756-.127-1.011-.382m1.5-.455a.761.761 0 00.183-.532v-2.739a.763.763 0 00-.184-.532.629.629 0 00-.489-.202.61.61 0 00-.478.202.774.774 0 00-.18.532v2.739c0 .22.06.397.18.532s.28.202.478.202a.627.627 0 00.49-.202M105.608 41.715v-5.203c0-.05.025-.076.076-.076h.582c.05 0 .076.025.076.076v4.614c0 .02.01.03.03.03h1.715c.05 0 .076.026.076.077v.482c0 .05-.025.076-.076.076h-2.403c-.051 0-.076-.025-.076-.076M109.047 41.436c-.253-.278-.38-.644-.38-1.098v-3.826c0-.05.026-.076.077-.076h.582c.051 0 .076.025.076.076v3.902c0 .24.06.434.18.581.12.149.277.223.471.223a.584.584 0 00.478-.223c.12-.147.18-.34.18-.581v-3.902c0-.05.025-.076.076-.076h.582c.05 0 .076.025.076.076v3.826c0 .454-.127.82-.382 1.098-.255.278-.592.417-1.01.417-.418 0-.754-.14-1.006-.417M114.995 36.512v.482c0 .051-.025.077-.076.077h-1.003c-.02 0-.03.01-.03.03v4.614c0 .051-.026.076-.077.076h-.58c-.052 0-.077-.025-.077-.076V37.1c0-.02-.01-.03-.03-.03h-.95c-.05 0-.076-.026-.076-.077v-.482c0-.05.025-.076.076-.076h2.747c.051 0 .076.025.076.076M115.684 41.715v-5.203c0-.05.025-.076.077-.076h.58c.052 0 .077.025.077.076v5.203c0 .05-.025.076-.076.076h-.581c-.052 0-.077-.025-.077-.076M117.627 41.47c-.255-.255-.382-.594-.382-1.017v-2.67c0-.424.127-.765.382-1.022.255-.258.591-.386 1.01-.386.424 0 .764.128 1.021.386.258.257.387.598.387 1.021v2.67c0 .424-.129.763-.387 1.018-.257.255-.597.382-1.02.382-.42 0-.756-.127-1.011-.382m1.5-.455a.761.761 0 00.183-.532v-2.739a.763.763 0 00-.183-.532.629.629 0 00-.49-.202.61.61 0 00-.478.202.774.774 0 00-.18.532v2.739c0 .22.06.397.18.532s.28.202.478.202a.627.627 0 00.49-.202M123.105 36.436h.573c.051 0 .077.025.077.076v5.203c0 .05-.026.076-.077.076h-.657c-.041 0-.069-.02-.085-.06l-1.3-3.497c-.006-.01-.013-.014-.023-.012-.01.003-.015.009-.015.02l.007 3.473c0 .05-.025.076-.076.076h-.582c-.05 0-.076-.025-.076-.076v-5.203c0-.05.025-.076.076-.076h.65c.042 0 .07.02.085.06l1.308 3.497c.005.016.013.022.023.02.01-.003.016-.012.016-.027v-3.474c0-.05.025-.076.076-.076M124.876 41.474c-.248-.252-.371-.583-.371-.99v-.2c0-.05.025-.076.076-.076h.567c.05 0 .076.025.076.076v.16c0 .235.059.423.176.563a.56.56 0 00.451.21.581.581 0 00.455-.203.772.772 0 00.18-.53.78.78 0 00-.095-.391 1.142 1.142 0 00-.253-.302c-.105-.09-.274-.221-.509-.394a7.651 7.651 0 01-.612-.497 1.848 1.848 0 01-.375-.498 1.44 1.44 0 01-.153-.681c0-.413.123-.74.368-.983.245-.242.563-.364.956-.364.408 0 .736.13.983.39.248.26.372.602.372 1.026v.191c0 .051-.027.077-.077.077h-.567c-.05 0-.076-.026-.076-.077v-.206c0-.23-.058-.415-.176-.555a.57.57 0 00-.46-.21.559.559 0 00-.435.187c-.112.125-.168.3-.168.524a.8.8 0 00.168.516c.112.14.329.328.65.563.307.23.537.416.693.558.155.143.275.3.359.47.084.172.127.375.127.609 0 .428-.126.772-.376 1.029-.25.258-.576.387-.979.387s-.728-.127-.975-.38M54.739 45.617h.573c.051 0 .077.025.077.076v5.203c0 .051-.026.076-.077.076h-.657c-.041 0-.07-.02-.085-.06l-1.3-3.497c-.006-.01-.013-.014-.023-.012-.01.003-.015.01-.015.02l.007 3.473c0 .051-.025.076-.076.076h-.582c-.051 0-.077-.025-.077-.076v-5.203c0-.05.026-.076.077-.076h.65c.041 0 .07.02.085.061l1.308 3.497c.005.015.013.021.023.019.01-.003.015-.012.015-.027v-3.474c0-.05.026-.076.077-.076M56.663 50.617c-.253-.278-.38-.644-.38-1.098v-3.826c0-.05.026-.076.077-.076h.582c.05 0 .076.025.076.076v3.902c0 .24.06.434.18.582.12.148.277.222.47.222a.584.584 0 00.479-.222c.12-.148.18-.342.18-.582v-3.902c0-.05.025-.076.076-.076h.582c.05 0 .076.025.076.076v3.826c0 .454-.127.82-.382 1.098-.255.278-.592.417-1.01.417-.419 0-.754-.14-1.006-.417M62.427 45.617h.582c.051 0 .077.025.077.076v5.203c0 .051-.026.076-.077.076h-.582c-.05 0-.076-.025-.076-.076V47.1c0-.015-.004-.023-.011-.023-.008 0-.017.005-.027.015l-.734 1.37c-.016.036-.039.054-.07.054-.03 0-.053-.018-.068-.054l-.727-1.362c-.01-.01-.02-.015-.027-.015-.008 0-.011.007-.011.023v3.787c0 .051-.026.076-.077.076h-.581c-.051 0-.077-.025-.077-.076v-5.203c0-.05.026-.076.077-.076h.58c.037 0 .067.018.093.054l.803 1.438c.005.005.013.008.023.008s.018-.003.023-.008l.796-1.438a.099.099 0 01.091-.054M66.483 46.252H64.76c-.02 0-.03.01-.03.03v1.66c0 .021.01.031.03.031h1.056c.05 0 .077.026.077.077v.482c0 .05-.026.076-.077.076h-1.056c-.02 0-.03.01-.03.03v1.669c0 .02.01.03.03.03h1.722c.05 0 .076.026.076.077v.482c0 .051-.026.076-.076.076h-2.41c-.052 0-.077-.025-.077-.076v-5.203c0-.05.025-.076.077-.076h2.41c.05 0 .076.025.076.076v.482c0 .052-.026.077-.076.077M64.89 45.1c-.01-.018-.007-.039.008-.064l.475-.827c.025-.036.055-.054.09-.054h.468c.03 0 .05.01.061.028.01.017.007.04-.008.064l-.566.834c-.02.031-.05.046-.092.046h-.375c-.03 0-.05-.009-.06-.027M69.321 50.911l-.704-2.28c-.005-.015-.015-.023-.03-.023h-.536c-.02 0-.03.01-.03.031v2.257c0 .051-.026.077-.077.077h-.581c-.052 0-.077-.026-.077-.077v-5.203c0-.05.025-.076.077-.076h1.37c.259 0 .489.064.688.191.199.128.353.308.463.54.11.231.164.496.164.791 0 .322-.067.601-.199.838-.132.238-.313.41-.543.517-.016.015-.02.03-.016.046l.781 2.348.008.031c0 .036-.023.054-.07.054h-.596c-.046 0-.076-.02-.092-.062m-1.3-4.628v1.714c0 .02.01.03.03.03h.566c.21 0 .378-.08.505-.241.128-.16.192-.374.192-.639 0-.275-.064-.493-.192-.654a.613.613 0 00-.505-.24h-.566c-.02 0-.03.009-.03.03M70.736 50.896v-5.203c0-.05.026-.076.077-.076h.581c.051 0 .077.025.077.076v5.203c0 .051-.026.076-.077.076h-.58c-.052 0-.078-.025-.078-.076M74.63 45.954c.25.265.375.612.375 1.04v2.601c0 .352-.086.652-.26.9-.173.247-.407.409-.703.485-.016.01-.023.023-.023.038v.712c0 .051-.026.076-.077.076h-.589c-.051 0-.077-.025-.077-.076v-.712c0-.015-.007-.028-.022-.038a1.222 1.222 0 01-.7-.49c-.171-.245-.257-.543-.257-.895v-2.601c0-.428.125-.775.375-1.04.25-.266.576-.398.98-.398.402 0 .729.132.979.398m-.36.964a.782.782 0 00-.172-.525.56.56 0 00-.447-.202.559.559 0 00-.448.202.779.779 0 00-.172.525v2.754c0 .214.057.389.172.524a.558.558 0 00.448.203.56.56 0 00.447-.203.78.78 0 00.172-.524zM76.173 50.617c-.253-.278-.38-.644-.38-1.098v-3.826c0-.05.026-.076.077-.076h.582c.05 0 .076.025.076.076v3.902c0 .24.06.434.18.582.12.148.277.222.47.222a.584.584 0 00.479-.222c.12-.148.18-.342.18-.582v-3.902c0-.05.025-.076.076-.076h.582c.05 0 .076.025.076.076v3.826c0 .454-.127.82-.382 1.098-.255.278-.592.417-1.01.417-.419 0-.754-.14-1.006-.417M81.868 46.252h-1.721c-.02 0-.03.01-.03.03v1.66c0 .021.01.031.03.031h1.056c.05 0 .076.026.076.077v.482c0 .05-.025.076-.076.076h-1.056c-.02 0-.03.01-.03.03v1.669c0 .02.01.03.03.03h1.721c.051 0 .077.026.077.077v.482c0 .051-.026.076-.077.076h-2.41c-.05 0-.076-.025-.076-.076v-5.203c0-.05.025-.076.077-.076h2.41c.05 0 .076.025.076.076v.482c0 .052-.026.077-.077.077M82.86 50.655c-.249-.253-.372-.583-.372-.99v-.2c0-.05.026-.076.077-.076h.566c.05 0 .076.025.076.076v.161c0 .235.06.422.177.562.116.14.267.21.45.21a.581.581 0 00.456-.202.772.772 0 00.18-.532.78.78 0 00-.096-.39 1.142 1.142 0 00-.252-.302c-.105-.09-.274-.22-.51-.394a7.498 7.498 0 01-.611-.498 1.843 1.843 0 01-.375-.497 1.438 1.438 0 01-.153-.68c0-.414.122-.742.367-.984s.564-.363.956-.363c.408 0 .736.13.984.39.247.26.371.602.371 1.025v.191c0 .051-.026.077-.077.077h-.566c-.05 0-.077-.026-.077-.077v-.206c0-.23-.058-.415-.175-.555a.57.57 0 00-.46-.21.559.559 0 00-.436.187c-.112.125-.168.3-.168.524a.8.8 0 00.168.517c.113.14.33.327.65.562.307.23.538.416.693.558.156.143.276.3.36.471.084.17.126.374.126.608 0 .429-.125.772-.375 1.03-.25.257-.576.386-.98.386-.402 0-.727-.127-.975-.379M89.465 50.911l-.703-2.28c-.006-.015-.016-.023-.031-.023h-.536c-.02 0-.03.01-.03.031v2.257c0 .051-.026.077-.077.077h-.58c-.052 0-.078-.026-.078-.077v-5.203c0-.05.026-.076.077-.076h1.37c.26 0 .489.064.688.191.199.128.353.308.463.54.11.231.164.496.164.791 0 .322-.066.601-.199.838-.132.238-.313.41-.543.517-.015.015-.02.03-.015.046l.78 2.348.008.031c0 .036-.023.054-.069.054h-.597c-.045 0-.076-.02-.092-.062m-1.3-4.628v1.714c0 .02.01.03.03.03h.567c.209 0 .377-.08.504-.241.128-.16.192-.374.192-.639 0-.275-.064-.493-.192-.654a.613.613 0 00-.504-.24h-.567c-.02 0-.03.009-.03.03M93.368 46.252h-1.722c-.02 0-.03.01-.03.03v1.66c0 .021.01.031.03.031h1.056c.051 0 .076.026.076.077v.482c0 .05-.025.076-.076.076h-1.056c-.02 0-.03.01-.03.03v1.669c0 .02.01.03.03.03h1.722c.05 0 .076.026.076.077v.482c0 .051-.025.076-.076.076h-2.41c-.051 0-.077-.025-.077-.076v-5.203c0-.05.026-.076.077-.076h2.41c.05 0 .076.025.076.076v.482c0 .052-.025.077-.076.077M94.358 50.655c-.247-.253-.37-.583-.37-.99v-.2c0-.05.025-.076.076-.076h.566c.05 0 .076.025.076.076v.161c0 .235.059.422.176.562.117.14.268.21.452.21a.58.58 0 00.455-.202.772.772 0 00.18-.532.776.776 0 00-.096-.39 1.142 1.142 0 00-.253-.302c-.104-.09-.274-.22-.509-.394a7.56 7.56 0 01-.611-.498 1.843 1.843 0 01-.375-.497 1.438 1.438 0 01-.153-.68c0-.414.122-.742.367-.984s.564-.363.956-.363c.408 0 .736.13.983.39.248.26.372.602.372 1.025v.191c0 .051-.026.077-.077.077h-.566c-.051 0-.076-.026-.076-.077v-.206c0-.23-.059-.415-.176-.555a.57.57 0 00-.46-.21.56.56 0 00-.436.187c-.112.125-.168.3-.168.524 0 .204.056.377.168.517.113.14.33.327.65.562.307.23.538.416.693.558.156.143.275.3.36.471.084.17.126.374.126.608 0 .429-.126.772-.375 1.03-.25.257-.576.386-.98.386-.403 0-.727-.127-.975-.379M99.76 46.034c.242.283.363.654.363 1.113 0 .449-.117.81-.352 1.086a1.157 1.157 0 01-.925.414h-.72c-.02 0-.03.01-.03.03v2.219c0 .051-.026.076-.077.076h-.582c-.05 0-.076-.025-.076-.076v-5.21c0-.051.026-.077.076-.077h1.37c.393 0 .71.142.952.425m-.562 1.782c.127-.16.192-.378.192-.654 0-.28-.065-.503-.192-.67a.607.607 0 00-.504-.248h-.567c-.02 0-.03.01-.03.03v1.753c0 .02.01.03.03.03h.567c.208 0 .377-.08.504-.24M101.08 50.651c-.256-.255-.383-.594-.383-1.017v-2.67c0-.424.127-.764.382-1.022.255-.257.592-.386 1.01-.386.424 0 .764.129 1.022.386.257.258.386.598.386 1.022v2.67c0 .423-.129.762-.386 1.017-.258.255-.598.383-1.021.383-.42 0-.756-.128-1.01-.383m1.499-.455a.761.761 0 00.184-.532v-2.739a.763.763 0 00-.184-.532.628.628 0 00-.49-.202.608.608 0 00-.478.202.774.774 0 00-.18.532v2.74c0 .219.06.396.18.53.12.136.28.204.479.204a.627.627 0 00.489-.203M106.557 45.617h.574c.05 0 .077.025.077.076v5.203c0 .051-.026.076-.077.076h-.658c-.04 0-.069-.02-.084-.06l-1.3-3.497c-.006-.01-.013-.014-.024-.012-.01.003-.015.01-.015.02l.008 3.473c0 .051-.026.076-.077.076h-.581c-.052 0-.077-.025-.077-.076v-5.203c0-.05.025-.076.077-.076h.65c.041 0 .069.02.084.061l1.309 3.497c.004.015.012.021.022.019.01-.003.016-.012.016-.027v-3.474c0-.05.025-.076.076-.076M108.329 50.655c-.248-.253-.371-.583-.371-.99v-.2c0-.05.025-.076.076-.076h.567c.05 0 .076.025.076.076v.161c0 .235.059.422.176.562.117.14.268.21.451.21a.581.581 0 00.455-.202.772.772 0 00.18-.532.78.78 0 00-.095-.39 1.142 1.142 0 00-.253-.302c-.105-.09-.274-.22-.509-.394a7.498 7.498 0 01-.612-.498 1.843 1.843 0 01-.375-.497 1.438 1.438 0 01-.153-.68c0-.414.123-.742.367-.984.246-.242.564-.363.957-.363.408 0 .736.13.983.39.248.26.372.602.372 1.025v.191c0 .051-.027.077-.077.077h-.567c-.05 0-.076-.026-.076-.077v-.206c0-.23-.058-.415-.176-.555a.57.57 0 00-.46-.21.559.559 0 00-.435.187c-.112.125-.168.3-.168.524a.8.8 0 00.168.517c.112.14.329.327.65.562.307.23.537.416.693.558.155.143.275.3.359.471.084.17.127.374.127.608 0 .429-.126.772-.376 1.03-.25.257-.576.386-.979.386s-.728-.127-.975-.379M113.398 50.904l-.169-.88a.027.027 0 00-.011-.023.047.047 0 00-.028-.008h-1.246a.045.045 0 00-.027.008c-.008.005-.011.013-.011.023l-.161.88c-.005.046-.033.069-.085.069h-.58c-.026 0-.045-.008-.058-.023-.013-.016-.017-.036-.012-.061l1.14-5.203c.01-.046.038-.069.084-.069h.681c.051 0 .08.023.085.069l1.147 5.203v.015c0 .046-.023.069-.069.069h-.596c-.046 0-.075-.023-.084-.07m-1.34-1.492h1.018c.015 0 .023-.01.023-.03l-.52-2.716c-.006-.01-.01-.015-.015-.015-.006 0-.011.005-.016.015l-.513 2.716c0 .02.008.03.023.03M117.096 50.59c-.263.255-.608.382-1.037.382h-1.277c-.051 0-.077-.025-.077-.076v-5.203c0-.05.026-.076.077-.076h1.17c.464 0 .828.121 1.09.364.263.242.395.595.395 1.059 0 .55-.196.93-.59 1.14-.025.015-.028.028-.007.038.204.123.364.293.478.513.115.22.172.48.172.78 0 .464-.13.824-.394 1.079m-1.656-4.307v1.622c0 .02.01.03.03.03h.49c.24 0 .426-.073.559-.218.132-.145.199-.348.199-.608 0-.27-.067-.48-.2-.631-.132-.151-.318-.226-.558-.226h-.49c-.02 0-.03.01-.03.03m1.113 3.81c.135-.157.203-.382.203-.673 0-.296-.067-.526-.2-.692a.667.667 0 00-.55-.249h-.536c-.02 0-.03.01-.03.03V50.3c0 .02.01.03.03.03h.528c.235 0 .42-.078.555-.236M118.179 50.896v-5.203c0-.05.025-.076.077-.076h.58c.052 0 .077.025.077.076v4.614c0 .02.01.03.03.03h1.715c.05 0 .076.026.076.077v.482c0 .051-.025.076-.076.076h-2.402c-.052 0-.077-.025-.077-.076M123.764 46.252h-1.722c-.02 0-.03.01-.03.03v1.66c0 .021.01.031.03.031h1.056c.051 0 .077.026.077.077v.482c0 .05-.026.076-.077.076h-1.056c-.02 0-.03.01-.03.03v1.669c0 .02.01.03.03.03h1.722c.05 0 .077.026.077.077v.482c0 .051-.026.076-.077.076h-2.41c-.051 0-.077-.025-.077-.076v-5.203c0-.05.026-.076.077-.076h2.41c.05 0 .077.025.077.076v.482c0 .052-.026.077-.077.077M124.755 50.655c-.248-.253-.371-.583-.371-.99v-.2c0-.05.025-.076.077-.076h.566c.05 0 .076.025.076.076v.161c0 .235.059.422.176.562.117.14.268.21.451.21a.581.581 0 00.456-.202.772.772 0 00.18-.532.78.78 0 00-.096-.39 1.142 1.142 0 00-.253-.302c-.104-.09-.274-.22-.509-.394a7.498 7.498 0 01-.611-.498 1.843 1.843 0 01-.375-.497 1.438 1.438 0 01-.154-.68c0-.414.123-.742.368-.984s.563-.363.956-.363c.408 0 .736.13.983.39.248.26.372.602.372 1.025v.191c0 .051-.026.077-.077.077h-.566c-.051 0-.077-.026-.077-.077v-.206c0-.23-.058-.415-.176-.555a.57.57 0 00-.459-.21.559.559 0 00-.436.187c-.112.125-.168.3-.168.524a.8.8 0 00.168.517c.112.14.33.327.65.562.307.23.538.416.693.558.156.143.275.3.36.471.084.17.126.374.126.608 0 .429-.126.772-.376 1.03-.25.257-.576.386-.979.386s-.728-.127-.975-.379" fill="#d6084f"/><path d="M102.11 23.059h3.249c-.162-.937-.647-1.47-1.585-1.47-.97 0-1.47.581-1.664 1.47m5.433 1.584h-5.482c.13 1.07.665 1.716 1.779 1.716.792 0 1.311-.273 1.876-1.114l1.666.826c-.598 1.293-1.872 2.104-3.49 2.104-2.828 0-4.17-1.794-4.17-4.2 0-2.392 1.506-4.22 4.091-4.22 2.347 0 3.786 1.649 3.786 4.205 0 .228-.015.452-.049.695m-12.54.53v-9.297h2.361v9.305c0 .665.34.986.841.986.31 0 .535-.078.729-.287l1.132 1.681c-.452.389-1.065.598-1.842.598-2.197 0-3.218-1.196-3.218-2.99m-5.455 1.263c.68 0 1.214-.34 1.651-.728v-.824l-.646-.131c-1.565-.307-1.988.258-1.988.807 0 .53.404.87.987.87m3.946-3.572v5.137H91.52l-.113-.793c-.792.614-1.698.954-2.668.954-1.536 0-2.62-.953-2.62-2.473 0-1.503 1.342-2.731 3.945-2.328l1.147.179v-.695c0-.938-.792-1.31-1.6-1.31-.712 0-1.407.274-1.988.97l-1.407-1.342c.89-.97 1.925-1.407 3.621-1.407 2.118 0 3.67.953 3.67 3.103m-7.59 4.704c-.452.39-1.065.598-1.842.598-2.198 0-3.217-1.195-3.217-2.989v-3.49h-.972v-1.76h.97v-2.746h2.362v2.75h2.018v1.76h-2.022v3.509c0 .665.34.986.841.986.307 0 .535-.078.728-.288l1.132 1.682zm-9.424.438h2.362V19.92h-2.362v8.086zm4.084-16.546c-.792 0-1.472-.516-1.744-1.293V8.482c.275-.773.952-1.308 1.744-1.308 1.132 0 1.891.957 1.891 2.152 0 1.196-.759 2.134-1.89 2.134m.466-6.337c-.904 0-1.647.321-2.211.87v-.71h-2.329V16.02a1.867 1.867 0 012.329-.028v-3.337c.565.55 1.31.873 2.214.873 2.197 0 3.75-1.843 3.75-4.2 0-2.358-1.554-4.204-3.753-4.204m-2.03 12.768c0-.717-.614-1.326-1.34-1.326-.718 0-1.327.609-1.327 1.326 0 .718.609 1.327 1.326 1.327.727 0 1.342-.61 1.342-1.327m-6.646 6.928v-1.712c-.292-.758-.953-1.293-1.73-1.293-1.148 0-1.891.957-1.891 2.153 0 1.196.743 2.133 1.89 2.133.778 0 1.44-.515 1.73-1.277m2.343-4.9v8.05c0 2.457-1.666 4.072-4.155 4.072-.904 0-1.665-.177-2.343-.484v-2.246c.647.485 1.39.791 2.362.791.971 0 1.797-.676 1.797-2.133v-.676c-.568.549-1.311.874-2.2.874-2.214 0-3.75-1.842-3.75-4.2s1.536-4.204 3.75-4.204c.955 0 1.748.374 2.328 1.001l.115-.84h2.102zm-11.815 8.083h2.36v-8.082h-2.36v8.082zm1.18-8.789c.727 0 1.342-.598 1.342-1.326 0-.729-.615-1.327-1.341-1.327-.713 0-1.327.598-1.327 1.327a1.34 1.34 0 001.324 1.326m-4.947 5.606V23.11c-.292-.759-.953-1.293-1.73-1.293-1.147 0-1.891.955-1.891 2.151 0 1.196.744 2.134 1.89 2.134.778 0 1.439-.518 1.73-1.278m2.329-8.939v12.12l-2.086.017-.128-.841a3.124 3.124 0 01-2.313.986c-2.215 0-3.75-1.843-3.75-4.203 0-2.36 1.535-4.202 3.75-4.202.89 0 1.633.32 2.197.87V15.88h2.328zm60.567-7.464h3.25c-.162-.938-.647-1.471-1.585-1.471-.97 0-1.471.582-1.665 1.47m5.432 1.585h-5.48c.13 1.065.663 1.711 1.778 1.711.793 0 1.31-.276 1.875-1.117l1.665.822c-.598 1.293-1.875 2.1-3.491 2.1-2.83 0-4.17-1.793-4.17-4.204 0-2.395 1.502-4.219 4.088-4.219 2.342 0 3.781 1.648 3.781 4.2 0 .225-.019.453-.049.696m-7.675 2.926c-.452.388-1.069.598-1.842.598-2.2 0-3.217-1.196-3.217-2.99V7.035h-.972V5.272h.968V2.526h2.358v2.746h2.018v1.764h-2.022v3.509c0 .663.34.986.841.986.306 0 .53-.08.725-.291l1.132 1.681zm-6.745-4.672v5.117h-2.361V8.549c0-.825-.617-1.374-1.506-1.374-.923 0-1.648.662-1.648 1.503v4.688h-2.362V5.284h2.115l.127.938a3.265 3.265 0 012.456-1.1c1.89 0 3.168 1.229 3.168 3.136m-11.875 5.108h2.359V5.284h-2.36v8.082zm1.192-8.79c.727 0 1.342-.597 1.342-1.326 0-.729-.615-1.326-1.342-1.326-.712 0-1.326.597-1.326 1.326a1.34 1.34 0 001.326 1.323M94.49 8.418h3.249c-.162-.938-.646-1.47-1.584-1.47-.97 0-1.471.581-1.665 1.47m5.432 1.584h-5.48c.129 1.068.662 1.714 1.778 1.714.792 0 1.31-.275 1.875-1.116l1.665.824c-.598 1.293-1.876 2.102-3.492 2.102-2.829 0-4.17-1.794-4.17-4.2 0-2.392 1.503-4.22 4.089-4.22 2.343 0 3.782 1.65 3.782 4.205 0 .224-.016.452-.05.695M92.429 5.82l-.987 1.726c-.224-.16-.58-.374-1.26-.374-.967 0-1.905.808-1.905 2.15v4.035h-2.358V5.275h2.12l.13 1.244c.55-.855 1.375-1.404 2.313-1.404.938 0 1.472.224 1.958.695M74.947 8.216v5.15h-2.36v-4.85c0-.793-.535-1.342-1.342-1.342-.841 0-1.487.663-1.487 1.504v4.688h-2.362v-4.85c0-.791-.533-1.34-1.324-1.34a1.49 1.49 0 00-1.505 1.503v4.687h-2.361V5.284h2.116l.113.857a3.02 3.02 0 012.295-1.019c1.115 0 2.004.469 2.522 1.261a3.38 3.38 0 012.666-1.26c1.827 0 3.023 1.228 3.023 3.103m-19.364.193h3.247c-.16-.937-.646-1.47-1.584-1.47-.97 0-1.471.582-1.665 1.47m5.43 1.585h-5.478c.127 1.067.661 1.713 1.778 1.713.793 0 1.308-.276 1.876-1.117l1.663.822c-.598 1.293-1.876 2.1-3.494 2.1-2.828 0-4.17-1.793-4.17-4.204 0-2.391 1.504-4.219 4.09-4.219 2.347 0 3.786 1.648 3.786 4.2 0 .225-.018.453-.049.696" fill="#367591"/></svg>